<svg xmlns="http://www.w3.org/2000/svg" width="490" height="176" viewBox="0 0 490 176" role="img" aria-label="skill3: Relearns a technical skill for an agent, anchored to a target model cutoff, and vets the result.">
  <title>skill3: Relearns a technical skill for an agent, anchored to a target model cutoff, and vets the result.</title>
  <defs>
    <linearGradient id="bgskill3" x1="0" y1="0" x2="1" y2="1">
      <stop offset="0%" stop-color="#0B1220"/>
      <stop offset="100%" stop-color="#111B2E"/>
    </linearGradient>
    <linearGradient id="acskill3" x1="0" y1="0" x2="1" y2="0">
      <stop offset="0%" stop-color="#F97316"/>
      <stop offset="100%" stop-color="#FBBF24"/>
    </linearGradient>
    <linearGradient id="topskill3" x1="0" y1="0" x2="1" y2="0">
      <stop offset="0%" stop-color="#F97316" stop-opacity="0.9"/>
      <stop offset="60%" stop-color="#FBBF24" stop-opacity="0"/>
    </linearGradient>
    <radialGradient id="glowskill3" cx="0%" cy="0%" r="75%">
      <stop offset="0%" stop-color="#F97316" stop-opacity="0.13"/>
      <stop offset="100%" stop-color="#F97316" stop-opacity="0"/>
    </radialGradient>
    <clipPath id="clipskill3"><rect width="490" height="176" rx="12"/></clipPath>
  </defs>
  <g clip-path="url(#clipskill3)">
    <rect width="490" height="176" fill="url(#bgskill3)"/>
    <rect width="490" height="176" fill="url(#glowskill3)"/>
    <rect width="490" height="2" fill="url(#topskill3)"/>
    <rect x="24" y="24" width="40" height="40" rx="10" fill="#F97316" fill-opacity="0.1" stroke="#F97316" stroke-opacity="0.35"/>
    <path transform="translate(32 32)" d="M20 12a8 8 0 0 1-14.3 4.9M4 12a8 8 0 0 1 14.3-4.9M18.5 3v4.3h-4.3M5.5 21v-4.3h4.3" fill="none" stroke="url(#acskill3)" stroke-width="1.7" stroke-linecap="round" stroke-linejoin="round"/>
    <text x="78" y="36" font-family="'Segoe UI', -apple-system, BlinkMacSystemFont, Helvetica, Arial, sans-serif" font-size="12" fill="#7C8BA5">PIsberg /</text>
    <text x="78" y="58" font-family="'Segoe UI', -apple-system, BlinkMacSystemFont, Helvetica, Arial, sans-serif" font-size="21" font-weight="700" fill="#F8FAFC">skill3</text>
    <text x="24" y="96" font-family="'Segoe UI', -apple-system, BlinkMacSystemFont, Helvetica, Arial, sans-serif" font-size="13.5" fill="#AEB9CC">Relearns a technical skill for an agent, anchored to a target</text>
    <text x="24" y="116" font-family="'Segoe UI', -apple-system, BlinkMacSystemFont, Helvetica, Arial, sans-serif" font-size="13.5" fill="#AEB9CC">model cutoff, and vets the result.</text>
    <circle cx="29" cy="152" r="5" fill="#B07219"/>
    <text x="41" y="156" font-family="'Segoe UI', -apple-system, BlinkMacSystemFont, Helvetica, Arial, sans-serif" font-size="12.5" fill="#CBD5E1">Java</text>
    <text x="466" y="156" text-anchor="end" font-family="'Segoe UI', -apple-system, BlinkMacSystemFont, Helvetica, Arial, sans-serif" font-size="12.5" font-weight="600" fill="#F97316">View repository &#8594;</text>
    <rect x="0.5" y="0.5" width="489" height="175" rx="11.5" fill="none" stroke="#FFFFFF" stroke-opacity="0.09"/>
  </g>
</svg>
